<mxfile host="65bd71144e">
    <diagram id="ur599dc82YFIkx610hXv" name="Page-1">
        <mxGraphModel dx="1080" dy="510" grid="0" gridSize="10" guides="1" tooltips="1" connect="1" arrows="1" fold="1" page="1" pageScale="1" pageWidth="850" pageHeight="1100" background="none" math="1" shadow="0">
            <root>
                <mxCell id="0"/>
                <mxCell id="1" parent="0"/>
                <mxCell id="2" value="&lt;div style=&quot;text-align: left;&quot;&gt;&lt;font style=&quot;font-size: 51px;&quot; face=&quot;Helvetica&quot;&gt;&lt;font style=&quot;background-color: transparent;&quot;&gt;y =&amp;nbsp;&lt;span style=&quot;background-color: rgb(255, 255, 255); color: rgb(31, 31, 31);&quot;&gt;α&lt;sub&gt;0&lt;/sub&gt;&lt;b&gt;+&lt;/b&gt;&lt;/span&gt;&lt;span style=&quot;background-color: rgb(255, 255, 255); color: rgb(31, 31, 31);&quot;&gt;δ&lt;sub&gt;0&lt;/sub&gt;x&lt;sub&gt;t&lt;/sub&gt;+&lt;/span&gt;&lt;/font&gt;&lt;span style=&quot;background-color: rgb(255, 255, 255); color: rgb(31, 31, 31);&quot;&gt;δ&lt;sub&gt;1&lt;/sub&gt;&lt;/span&gt;&lt;span style=&quot;background-color: rgb(255, 255, 255); color: rgb(31, 31, 31);&quot;&gt;&lt;sub&gt;&lt;font&gt;x&lt;/font&gt;&lt;/sub&gt;&lt;/span&gt;&lt;span style=&quot;background-color: transparent;&quot;&gt;&lt;font style=&quot;background-color: rgb(255, 255, 255);&quot;&gt;&lt;sub&gt;t-1&lt;/sub&gt;+&lt;/font&gt;&lt;/span&gt;&lt;span style=&quot;background-color: rgb(255, 255, 255); color: rgb(31, 31, 31);&quot;&gt;δ&lt;/span&gt;&lt;span style=&quot;background-color: rgb(255, 255, 255); color: rgb(31, 31, 31);&quot;&gt;&lt;sub&gt;2&lt;/sub&gt;&lt;/span&gt;&lt;span style=&quot;background-color: rgb(255, 255, 255); color: rgb(31, 31, 31);&quot;&gt;x&lt;sub&gt;t-2&lt;/sub&gt;&lt;/span&gt;&lt;/font&gt;&lt;/div&gt;&lt;div style=&quot;text-align: left;&quot;&gt;&lt;font style=&quot;font-size: 51px;&quot; face=&quot;Helvetica&quot;&gt;&lt;font style=&quot;&quot;&gt;&lt;span style=&quot;color: rgb(31, 31, 31); background-color: rgb(255, 255, 255);&quot;&gt;&lt;sub style=&quot;&quot;&gt;LRP =&amp;nbsp;&lt;/sub&gt;&lt;/span&gt;&lt;span style=&quot;color: rgb(31, 31, 31); background-color: rgb(255, 255, 255);&quot;&gt;δ&lt;/span&gt;&lt;sub style=&quot;background-color: transparent;&quot;&gt;0&lt;/sub&gt;&lt;span style=&quot;background-color: transparent;&quot;&gt;+&lt;/span&gt;&lt;span style=&quot;color: rgb(31, 31, 31); background-color: rgb(255, 255, 255);&quot;&gt;δ&lt;/span&gt;&lt;sub style=&quot;background-color: transparent;&quot;&gt;1&lt;/sub&gt;&lt;span style=&quot;background-color: transparent;&quot;&gt;+&lt;/span&gt;&lt;span style=&quot;color: rgb(31, 31, 31); background-color: rgb(255, 255, 255);&quot;&gt;δ&lt;sub&gt;2 =&amp;nbsp;&lt;/sub&gt;&lt;/span&gt;&lt;/font&gt;&lt;span style=&quot;background-color: rgb(255, 255, 255); color: rgb(40, 40, 40);&quot;&gt;θ&lt;/span&gt;&lt;/font&gt;&lt;/div&gt;&lt;div style=&quot;text-align: left;&quot;&gt;&lt;font style=&quot;font-size: 51px;&quot; face=&quot;Helvetica&quot;&gt;&lt;span style=&quot;background-color: rgb(255, 255, 255); color: rgb(40, 40, 40);&quot;&gt;&lt;br&gt;&lt;/span&gt;&lt;/font&gt;&lt;/div&gt;&lt;div style=&quot;text-align: left;&quot;&gt;&lt;font style=&quot;font-size: 51px;&quot;&gt;&lt;font style=&quot;&quot; face=&quot;Helvetica&quot;&gt;&lt;span style=&quot;background-color: rgb(255, 255, 255); color: rgb(40, 40, 40);&quot;&gt;y =&amp;nbsp;&lt;/span&gt;&lt;/font&gt;&lt;font style=&quot;background-color: transparent; color: rgb(63, 63, 63);&quot;&gt;&lt;span style=&quot;background-color: rgb(255, 255, 255); color: rgb(31, 31, 31);&quot;&gt;α&lt;sub&gt;0&lt;/sub&gt;&lt;b&gt;+(&lt;/b&gt;&lt;/span&gt;&lt;/font&gt;&lt;span style=&quot;background-color: rgb(255, 255, 255); color: rgb(40, 40, 40);&quot;&gt;θ-&lt;/span&gt;&lt;span style=&quot;background-color: rgb(255, 255, 255); color: rgb(31, 31, 31);&quot;&gt;δ&lt;/span&gt;&lt;sub style=&quot;background-color: transparent; color: rgb(63, 63, 63);&quot;&gt;1&lt;/sub&gt;&lt;span style=&quot;background-color: transparent; color: rgb(63, 63, 63);&quot;&gt;-&lt;/span&gt;&lt;span style=&quot;color: rgb(31, 31, 31); background-color: rgb(255, 255, 255);&quot;&gt;δ&lt;/span&gt;&lt;sub style=&quot;background-color: transparent;&quot;&gt;2&lt;/sub&gt;&lt;font style=&quot;color: rgb(63, 63, 63); background-color: transparent;&quot;&gt;&lt;span style=&quot;background-color: rgb(255, 255, 255); color: rgb(31, 31, 31);&quot;&gt;&lt;b&gt;)&lt;/b&gt;&lt;/span&gt;&lt;span style=&quot;background-color: rgb(255, 255, 255); color: rgb(31, 31, 31);&quot;&gt;x&lt;sub&gt;t&lt;/sub&gt;+&lt;/span&gt;&lt;/font&gt;&lt;span style=&quot;background-color: rgb(255, 255, 255); color: rgb(31, 31, 31);&quot;&gt;δ&lt;sub&gt;1&lt;/sub&gt;&lt;/span&gt;&lt;span style=&quot;background-color: rgb(255, 255, 255); color: rgb(31, 31, 31);&quot;&gt;x&lt;/span&gt;&lt;span style=&quot;color: rgb(63, 63, 63); background-color: transparent;&quot;&gt;&lt;font style=&quot;background-color: rgb(255, 255, 255);&quot;&gt;&lt;sub&gt;t-1&lt;/sub&gt;+&lt;/font&gt;&lt;/span&gt;&lt;span style=&quot;background-color: rgb(255, 255, 255); color: rgb(31, 31, 31);&quot;&gt;δ&lt;/span&gt;&lt;span style=&quot;background-color: rgb(255, 255, 255); color: rgb(31, 31, 31);&quot;&gt;&lt;sub&gt;2&lt;/sub&gt;&lt;/span&gt;&lt;span style=&quot;background-color: rgb(255, 255, 255); color: rgb(31, 31, 31);&quot;&gt;x&lt;sub&gt;t-2&lt;/sub&gt;&lt;/span&gt;&lt;/font&gt;&lt;/div&gt;&lt;div style=&quot;text-align: left;&quot;&gt;&lt;br&gt;&lt;/div&gt;&lt;div&gt;&lt;br&gt;&lt;/div&gt;" style="text;html=1;align=center;verticalAlign=middle;whiteSpace=wrap;rounded=0;" vertex="1" parent="1">
                    <mxGeometry x="88" y="139" width="699" height="374" as="geometry"/>
                </mxCell>
            </root>
        </mxGraphModel>
    </diagram>
</mxfile>